<?xml version="1.0" encoding="UTF-8" standalone="no"?>
<!-- Generated by IcoMoon.io -->

<svg
   xmlns:dc="http://purl.org/dc/elements/1.1/"
   xmlns:cc="http://creativecommons.org/ns#"
   xmlns:rdf="http://www.w3.org/1999/02/22-rdf-syntax-ns#"
   xmlns:svg="http://www.w3.org/2000/svg"
   xmlns="http://www.w3.org/2000/svg"
   xmlns:sodipodi="http://sodipodi.sourceforge.net/DTD/sodipodi-0.dtd"
   xmlns:inkscape="http://www.inkscape.org/namespaces/inkscape"
   version="1.1"
   width="64"
   height="64"
   viewBox="0 0 64 64"
   id="svg2"
   inkscape:version="0.91 r13725"
   sodipodi:docname="icons.svg">
  <metadata
     id="metadata10">
    <rdf:RDF>
      <cc:Work
         rdf:about="">
        <dc:format>image/svg+xml</dc:format>
        <dc:type
           rdf:resource="http://purl.org/dc/dcmitype/StillImage" />
        <dc:title></dc:title>
      </cc:Work>
    </rdf:RDF>
  </metadata>
  <defs
     id="defs8" />
  <sodipodi:namedview
     pagecolor="#ffffff"
     bordercolor="#666666"
     borderopacity="1"
     objecttolerance="10"
     gridtolerance="10"
     guidetolerance="10"
     inkscape:pageopacity="0"
     inkscape:pageshadow="2"
     inkscape:window-width="1920"
     inkscape:window-height="1147"
     id="namedview6"
     showgrid="false"
     inkscape:zoom="2.6074563"
     inkscape:cx="206.03493"
     inkscape:cy="-50.603409"
     inkscape:window-x="3"
     inkscape:window-y="0"
     inkscape:window-maximized="0"
     inkscape:current-layer="svg2">
    <inkscape:grid
       type="xygrid"
       id="grid3338" />
  </sodipodi:namedview>
  <rect
     style="opacity:1;fill:#f2f2f2;fill-opacity:1;stroke:none;stroke-width:15;stroke-miterlimit:4;stroke-dasharray:none;stroke-dashoffset:0;stroke-opacity:1"
     id="rect3340"
     width="70"
     height="70"
     x="-5"
     y="-1"
     inkscape:export-filename="/Users/jared/clone/ff/stories/icon.png"
     inkscape:export-xdpi="141.42999"
     inkscape:export-ydpi="141.42999" />
  <path
     d="M 29,52.75 29,13.5 C 29,13.5 23.624,9 16,9 8.376,9 3,13 3,13 l 0,39.75 c 0,0 5.376,-3.876 13,-3.876 7.624,0 13,3.876 13,3.876 z m 28,0 0,-39.25 C 57,13.5 51.624,9 44,9 36.376,9 31,13 31,13 l 0,39.75 c 0,0 5.376,-3.876 13,-3.876 7.624,0 13,3.876 13,3.876 z M 61,17 l -2,0 0,38 -24,0 0,2 -10,0 0,-2 -24,0 0,-38 -2,0 0,40 24,0 0,2 14.124,0 L 37,57 61,57 61,17 Z"
     id="path4"
     style="fill:#8080ff"
     inkscape:connector-curvature="0" />
  <rect
     style="opacity:1;fill:#ffffff;fill-opacity:1;stroke:#000000;stroke-width:1;stroke-miterlimit:4;stroke-dasharray:none;stroke-dashoffset:0;stroke-opacity:1"
     id="rect3342"
     width="300"
     height="225"
     x="80"
     y="-1"
     inkscape:export-filename="/Users/jared/clone/ff/stories/thumbnail.png"
     inkscape:export-xdpi="89.700996"
     inkscape:export-ydpi="89.700996" />
  <path
     inkscape:connector-curvature="0"
     style="fill:#8080ff"
     id="path3344"
     d="m 336.49704,52.832424 0,-39.25 c 0,0 -5.376,-4.4999996 -13,-4.4999996 -7.624,0 -13,3.9999996 -13,3.9999996 l 0,39.75 c 0,0 5.376,-3.876 13,-3.876 7.624,0 13,3.876 13,3.876 z m 28,0 0,-39.25 c 0,0 -5.376,-4.4999996 -13,-4.4999996 -7.624,0 -13,3.9999996 -13,3.9999996 l 0,39.75 c 0,0 5.376,-3.876 13,-3.876 7.624,0 13,3.876 13,3.876 z m 4,-35.75 -2,0 0,38 -24,0 0,2 -10,0 0,-2 -24,0 0,-38 -2,0 0,40 24,0 0,2 14.124,0 -0.124,-2 24,0 0,-40 z" />
  <text
     xml:space="preserve"
     style="font-style:normal;font-variant:normal;font-weight:normal;font-stretch:normal;font-size:25px;line-height:125%;font-family:Superclarendon;-inkscape-font-specification:Superclarendon;text-align:start;letter-spacing:0px;word-spacing:0px;writing-mode:lr-tb;text-anchor:start;fill:#000000;fill-opacity:1;stroke:none;stroke-width:1px;stroke-linecap:butt;stroke-linejoin:miter;stroke-opacity:1"
     x="92.616486"
     y="42.179146"
     id="text3346"
     sodipodi:linespacing="125%"><tspan
       sodipodi:role="line"
       id="tspan3348"
       x="92.616486"
       y="42.179146">All the Stories</tspan></text>
  <circle
     style="opacity:1;fill:#5555ff;fill-opacity:1;stroke:none;stroke-width:15;stroke-miterlimit:4;stroke-dasharray:none;stroke-dashoffset:0;stroke-opacity:1"
     id="path3350"
     cx="114.43903"
     cy="97.657692"
     r="5.5895715" />
  <text
     xml:space="preserve"
     style="font-style:normal;font-variant:normal;font-weight:normal;font-stretch:normal;font-size:12.5px;line-height:125%;font-family:Superclarendon;-inkscape-font-specification:'Superclarendon, Normal';text-align:start;letter-spacing:0px;word-spacing:0px;writing-mode:lr-tb;text-anchor:start;fill:#4d4d4d;fill-opacity:1;stroke:none;stroke-width:1px;stroke-linecap:butt;stroke-linejoin:miter;stroke-opacity:1"
     x="126.56266"
     y="101.09673"
     id="text3352"
     sodipodi:linespacing="125%"><tspan
       sodipodi:role="line"
       id="tspan3354"
       x="126.56266"
       y="101.09673">William Wilkinson Dixon</tspan></text>
  <text
     xml:space="preserve"
     style="font-style:normal;font-variant:normal;font-weight:normal;font-stretch:normal;font-size:10px;line-height:125%;font-family:Superclarendon;-inkscape-font-specification:'Superclarendon, Normal';text-align:start;letter-spacing:0px;word-spacing:0px;writing-mode:lr-tb;text-anchor:start;fill:#4d4d4d;fill-opacity:1;stroke:none;stroke-width:1px;stroke-linecap:butt;stroke-linejoin:miter;stroke-opacity:1"
     x="138.94617"
     y="115.94617"
     id="text3356"
     sodipodi:linespacing="125%"><tspan
       sodipodi:role="line"
       id="tspan3358"
       x="138.94617"
       y="115.94617">Your mother's great-grandfather</tspan></text>
  <text
     xml:space="preserve"
     style="font-style:normal;font-variant:normal;font-weight:normal;font-stretch:normal;font-size:11.25px;line-height:125%;font-family:Superclarendon;-inkscape-font-specification:'Superclarendon, Normal';text-align:start;letter-spacing:0px;word-spacing:0px;writing-mode:lr;text-anchor:start;fill:#4d4d4d;fill-opacity:1;stroke:none;stroke-width:1px;stroke-linecap:butt;stroke-linejoin:miter;stroke-opacity:1;"
     x="157.57022"
     y="141.71321"
     id="text3360"
     sodipodi:linespacing="125%"><tspan
       sodipodi:role="line"
       id="tspan3362"
       x="157.57022"
       y="141.71321">Short life sketch</tspan></text>
  <text
     xml:space="preserve"
     style="font-style:normal;font-variant:normal;font-weight:normal;font-stretch:normal;font-size:11.25px;line-height:125%;font-family:Superclarendon;-inkscape-font-specification:'Superclarendon, Normal';text-align:start;letter-spacing:0px;word-spacing:0px;writing-mode:lr;text-anchor:start;fill:#4d4d4d;fill-opacity:1;stroke:none;stroke-width:1px;stroke-linecap:butt;stroke-linejoin:miter;stroke-opacity:1;"
     x="157.57022"
     y="167.11102"
     id="text3364"
     sodipodi:linespacing="125%"><tspan
       sodipodi:role="line"
       id="tspan3366"
       x="157.57022"
       y="167.11102">Pioneer diary</tspan></text>
  <text
     xml:space="preserve"
     style="font-style:normal;font-variant:normal;font-weight:normal;font-stretch:normal;font-size:11.25px;line-height:125%;font-family:Superclarendon;-inkscape-font-specification:'Superclarendon, Normal';text-align:start;letter-spacing:0px;word-spacing:0px;writing-mode:lr;text-anchor:start;fill:#4d4d4d;fill-opacity:1;stroke:none;stroke-width:1px;stroke-linecap:butt;stroke-linejoin:miter;stroke-opacity:1;"
     x="157.57022"
     y="191.35829"
     id="text3368"
     sodipodi:linespacing="125%"><tspan
       sodipodi:role="line"
       id="tspan3370"
       x="157.57022"
       y="191.35829">Letters to his niece</tspan></text>
  <rect
     style="opacity:1;fill:#5555ff;fill-opacity:1;stroke:none;stroke-width:15;stroke-miterlimit:4;stroke-dasharray:none;stroke-dashoffset:0;stroke-opacity:1"
     id="rect3372"
     width="8.820858"
     height="3.0681243"
     x="139.62825"
     y="137.41631" />
  <rect
     y="161.41631"
     x="139.62825"
     height="3.0681243"
     width="8.820858"
     id="rect3374"
     style="opacity:1;fill:#5555ff;fill-opacity:1;stroke:none;stroke-width:15;stroke-miterlimit:4;stroke-dasharray:none;stroke-dashoffset:0;stroke-opacity:1" />
  <rect
     style="opacity:1;fill:#5555ff;fill-opacity:1;stroke:none;stroke-width:15;stroke-miterlimit:4;stroke-dasharray:none;stroke-dashoffset:0;stroke-opacity:1"
     id="rect3376"
     width="8.820858"
     height="3.0681243"
     x="139.62825"
     y="185.41631" />
</svg>
